<?xml version="1.0" encoding="utf-8"?>
<!-- Generator: Adobe Illustrator 16.0.0, SVG Export Plug-In . SVG Version: 6.00 Build 0)  -->
<!DOCTYPE svg PUBLIC "-//W3C//DTD SVG 1.1//EN" "http://www.w3.org/Graphics/SVG/1.1/DTD/svg11.dtd">
<svg version="1.1" id="Layer_1" xmlns="http://www.w3.org/2000/svg" xmlns:xlink="http://www.w3.org/1999/xlink" x="0px" y="0px"
	 width="463px" height="545px" viewBox="0 0 463 545" enable-background="new 0 0 463 545" xml:space="preserve">
<path fill="#004573" d="M46.091,46.501h381.001c5.521,0,10,4.477,10,10v448.001c0,5.522-4.479,10-10,10H46.091
	c-5.523,0-10-4.478-10-10V56.501C36.091,50.979,40.568,46.501,46.091,46.501z"/>
<path fill="#0064A6" d="M43.09,43.5h381c5.521,0,10,4.477,10,10v448c0,5.522-4.479,10-10,10h-381c-5.523,0-10-4.478-10-10v-448
	C33.09,47.977,37.567,43.5,43.09,43.5z"/>
<path fill="#4E9FD3" d="M130.642,58.878c-31.871,0-58.964,0-67.686,0c-9.257,0-14.507,7.821-14.507,15.758
	c0,11.072,0,121.423,0,140.882c0-54.254,6.397-102.389,22.358-125.598C88.545,64.13,130.642,58.878,130.642,58.878z"/>
</svg>
