<?xml version="1.0" encoding="utf-8"?>
<!-- Generator: Adobe Illustrator 16.0.0, SVG Export Plug-In . SVG Version: 6.00 Build 0)  -->
<!DOCTYPE svg PUBLIC "-//W3C//DTD SVG 1.1//EN" "http://www.w3.org/Graphics/SVG/1.1/DTD/svg11.dtd">
<svg version="1.1" id="Layer_1" xmlns="http://www.w3.org/2000/svg" xmlns:xlink="http://www.w3.org/1999/xlink" x="0px" y="0px"
	 width="360px" height="100px" viewBox="0 0 360 100" enable-background="new 0 0 360 100" xml:space="preserve">
<g>
	<g>
		<path fill="#0064A6" d="M124.015,47.553h-7.685c2.135,3.91,3.35,8.394,3.35,13.162v28.482h-14.35v-4.32
			c-3.909,2.135-8.395,3.35-13.161,3.35c-15.194,0-27.513-12.316-27.513-27.512c0-15.193,12.317-27.509,27.513-27.509h31.846V47.553
			z M79.006,60.715c0,7.271,5.893,13.164,13.163,13.164c7.269,0,13.161-5.893,13.161-13.164c0-7.268-5.893-13.162-13.161-13.162
			C84.899,47.553,79.006,53.447,79.006,60.715z"/>
		<path fill="#4E9FD3" d="M88.999,38.426c-9.991,0.383-17.043,6.066-19.234,19.019C74.35,39.754,88.999,38.426,88.999,38.426z"/>
	</g>
	<g>
		<path fill="#EC0088" d="M33.395,89.066c-2.439,0-3.991-0.361-4.653-1.076l0.772-3.77c1.437-8.969,2.27-19.594,2.496-31.861
			c-0.006-0.791,0.092-1.652,0.294-2.586c0.2-0.932-0.031-1.758-0.693-2.476h-4.63c-0.145,0-0.311-0.071-0.5-0.216
			c-0.189-0.143-0.246-0.43-0.171-0.862c0.075-0.431,0.269-0.716,0.583-0.86c0.311-0.143,0.54-0.627,0.686-1.453
			c0.146-0.824,0.596-1.758,1.355-2.799c0.758-1.039,1.199-1.92,1.326-2.637c0.127-0.718,0.432-1.132,0.918-1.238
			c0.484-0.107,1.033-0.16,1.644-0.16c0.608,0,1.16-0.072,1.653-0.218c0.49-0.142,0.797-0.555,0.917-1.237
			c0.12-0.682,0.067-1.2-0.155-1.561l3.171-10.658c0.153-0.861,0.539-1.631,1.162-2.314c0.622-0.68,1.005-1.021,1.149-1.021
			l3.268-3.877l9.193-4.521l2.305-0.861l1.432,0.431c5.26,1.507,7.75,3.051,7.472,4.629c-0.101,0.575-0.601,0.97-1.5,1.184
			c0.295,0.359,0.432,0.807,0.408,1.347c-0.023,0.538-0.014,1.095,0.028,1.669c-0.025,1.363-0.063,2.189-0.113,2.475
			c-0.215,1.223-0.698,1.831-1.453,1.831c-0.753,0-1.18-0.323-1.281-0.97c-4.594,0-7.428,1.832-8.504,5.49
			c-0.348,1.15-0.637,2.387-0.87,3.714c-0.234,1.329-0.253,2.353-0.057,3.069c0.196,0.718,0.663,1.221,1.402,1.507
			c1.06,0.503,3.851,0.753,8.372,0.753h0.969l-0.449,1.938c-0.165,0.934-0.455,2.979-0.867,6.137
			c-0.037,0.214-0.635,0.34-1.789,0.377c-1.155,0.036-2.456,0.09-3.902,0.161c-3.699,0.216-5.637,0.826-5.813,1.83
			c-0.101,0.575-0.067,1.292,0.104,2.154c0.171,0.861,0.098,2.189-0.219,3.982l-6.549,33.48c-0.845,0.715-3.096,1.076-6.756,1.076
			H33.395z M32.091,42.13l0.823,0.215l-0.152,0.86c-0.145,0-0.613,0.217-1.406,0.647c-1.443,0.86-2.189,1.436-2.24,1.722
			c0.574,0,1.086,0.144,1.538,0.431c0.181-0.217,0.659-0.484,1.435-0.808c0.773-0.323,1.391-0.771,1.854-1.345l8.736-3.768h-1.291
			c-0.073,0-0.49,0.125-1.251,0.376c-0.764,0.252-1.6,0.521-2.511,0.808c-2.293,0.791-3.451,1.256-3.476,1.398h-0.108
			c-0.072,0-0.139-0.035-0.196-0.106c0.151-0.861,0.624-1.399,1.415-1.616c0.791-0.215,1.46-0.646,2.004-1.291
			c-1.047-0.574-2.001-0.861-2.862-0.861s-1.776,0.307-2.745,0.915c-0.969,0.61-1.617,1.849-1.947,3.715
			C30.046,43.134,30.84,42.705,32.091,42.13z M34.239,44.605c-0.025,0.145,0.284,0.216,0.93,0.216c0.646,0,1.646-0.178,3.002-0.538
			c0.059,0.072,0.076,0.181,0.051,0.322c-0.039,0.216-0.465,0.396-1.279,0.539c-1.512,0.431-2.377,0.861-2.596,1.292
			c-0.076,0.431,0.134,0.861,0.634,1.292c0.442-1.292,2.161-2.297,5.16-3.015l-0.708-0.86c0.948-0.502,2.201-0.898,3.76-1.186
			l3.666-0.645c2.072-0.359,3.244-0.896,3.515-1.615c0.122-0.287,0.812-0.539,2.071-0.754c-1.184-0.216-2.673-1.328-4.472-3.338
			c-0.368-0.357-0.642-0.537-0.821-0.537s-0.547,0.143-1.098,0.432c-0.555,0.287-1.131,0.609-1.732,0.968
			c-0.601,0.359-1.182,0.699-1.74,1.021c-0.561,0.323-0.883,0.522-0.966,0.593h2.583l-0.075,0.431
			c0.64-0.79,1.679-1.185,3.114-1.185c-0.563,1.148-3.963,2.943-10.206,5.384L34.239,44.605z M38.829,37.501
			c-0.17,0.144-0.415,0.717-0.735,1.722h0.431c1.131-0.718,2.268-1.362,3.41-1.938c1.141-0.572,2.207-1.219,3.194-1.938h-3.983
			c0.102-0.573,0.502-0.914,1.203-1.022c0.701-0.106,1.484-0.179,2.353-0.214c0.867-0.037,1.657-0.145,2.372-0.324
			c0.713-0.178,1.12-0.555,1.223-1.131c0.1-0.573,0.07-0.915-0.09-1.021c-0.162-0.107-0.475-0.271-0.938-0.484
			c-2.082,0-4.223,1.148-6.42,3.444c-0.52,0.503-0.877,0.897-1.07,1.185c-0.431,0-0.599-0.27-0.504-0.808s0.347-0.951,0.756-1.237
			l0.267,0.322c0.223-0.861,0.798-1.471,1.723-1.83c0.37-0.071,0.745-0.162,1.124-0.27c0.377-0.107,0.748-0.376,1.111-0.807
			c-0.627,0.287-1.321,0.467-2.087,0.537c-0.767,0.074-1.485,0.18-2.156,0.324c-1.545,0.215-2.469,1.184-2.772,2.905
			C36.934,36.64,37.463,37.501,38.829,37.501z M42.192,49.556l-5.666,1.618c-0.133-0.072-0.339-0.125-0.619-0.162
			c-0.281-0.035-0.48-0.123-0.598-0.27c1.469-1.005,3.753-2.153,6.852-3.445h-0.969c-2.082,0-3.683,0.323-4.8,0.968
			c-1.12,0.647-1.71,1.149-1.773,1.508c-0.228,1.293-0.288,2.549-0.179,3.768c0.106,1.221,0.23,1.83,0.376,1.83h0.538
			c1.014-0.861,2.226-1.738,3.641-2.637c1.413-0.898,2.604-1.846,3.571-2.854L42.192,49.556z M49.534,15.863
			c-0.469,0.215-1.099,0.322-1.887,0.322c-2.002,0.36-4.098,2.477-6.288,6.352c-0.757,1.438-1.343,2.729-1.76,3.876l-0.734,1.723
			l-0.627,3.552c0.216,0,0.703-0.323,1.463-0.967l-0.151,0.86c0.594-0.933,1.553-1.687,2.875-2.262l2.684-1.184
			c0.553-0.286,0.926-0.573,1.121-0.861l-1.57-0.861l-3.414,0.431h-0.537l0.17-0.969l0.412,0.107c0.143,0,0.244-0.162,0.301-0.484
			s0.241-0.662,0.557-1.022c0.314-0.358,1.068-0.771,2.265-1.237c1.192-0.467,2.122-0.951,2.786-1.454l-3.325,0.538l-1.487-0.107
			l0.582-0.861l1.279-0.539c4.274-1.864,6.541-3.121,6.801-3.768h-2.045c-0.073,0-0.104-0.035-0.09-0.106l0.037-0.216
			c0.025-0.143,0.119-0.27,0.283-0.377C49.395,16.239,49.495,16.078,49.534,15.863z M38.184,55.801l-0.588-0.322
			c-0.791,0-1.416,0.092-1.878,0.27c-0.462,0.18-0.737,0.521-0.827,1.021c-0.125,0.719-0.144,1.221-0.049,1.506
			c0.184-0.645,0.677-1.092,1.475-1.346C37.116,56.68,37.736,56.305,38.184,55.801z M35.749,62.906
			c0.674-0.574,2.143-0.861,4.403-0.861s3.347,0.252,3.259,0.754c-0.09,0.502-0.375,0.896-0.855,1.184s-0.993,0.537-1.532,0.754
			c-1.668,0.502-2.641,0.934-2.919,1.291l0.373,0.324l4.027-0.863l0.768,0.539c-1.111,1.008-2.321,1.869-3.633,2.584
			c-1.31,0.719-2.551,1.545-3.719,2.477c0.131,0.072,0.304,0.107,0.519,0.107h1.185c3.73,0,5.73-0.754,5.996-2.26l2.088-11.844
			c-1.297,0.432-2.498,1.041-3.605,1.83c-1.108,0.791-2.282,1.436-3.518,1.938c0.126-0.717,0.587-1.291,1.38-1.723
			c0.793-0.43,1.509-0.822,2.147-1.184l-1.273-0.107c-4.091,0-6.396,1.473-6.914,4.412c0.646,0,1.938-0.607,3.875-1.828l0.032,0.43
			c-0.089,0.504-0.345,0.824-0.765,0.969S36.208,62.332,35.749,62.906z M53.545,40.73l-8.669,3.983h-3.015l-0.506,0.431
			c-2.812,1.292-4.23,2.01-4.256,2.153c1.236-0.502,2.619-0.915,4.148-1.239c1.527-0.322,3.047-0.699,4.559-1.13
			c3.766-1.004,6.476-2.331,8.131-3.983L53.545,40.73z M37.287,63.338l-2.57,0.535l-0.589,3.338h0.861l-1.374,4.738
			c0.953-0.932,2.044-1.723,3.271-2.369c1.227-0.645,2.28-1.434,3.163-2.369l-4.059,0.432l-0.097-1.291
			c0.268-0.287,0.667-0.521,1.201-0.699c0.532-0.18,1.089-0.379,1.665-0.594c0.577-0.217,1.104-0.467,1.586-0.754
			c0.481-0.285,0.772-0.717,0.874-1.291c-0.627,0.287-1.225,0.43-1.799,0.43L37.287,63.338z M35.48,72.057
			c-0.636,0.145-1.161,0.484-1.58,1.021c-0.417,0.539-0.702,1.238-0.854,2.1c-0.152,0.863-0.062,1.365,0.273,1.508
			c0.666-0.932,1.582-1.648,2.747-2.152c2.258-1.006,3.737-1.867,4.438-2.584l-0.335-0.539c-0.913,0.289-1.764,0.43-2.552,0.43
			C36.827,71.84,36.114,71.914,35.48,72.057z M37.074,83.467c0.076-0.432,1.058-1.721,2.944-3.875h-2.152l0.094-0.539
			c-0.861,0-1.625,0.162-2.291,0.486c-0.668,0.322-1.539,0.484-2.615,0.484c0.873-1.291,1.633-1.939,2.279-1.939
			c0.143,0,0.345,0.072,0.607,0.215c0.426-0.787,0.891-1.184,1.393-1.184s1.025-0.32,1.57-0.967
			c-2.047,0.215-3.953,0.646-5.717,1.291l-2.02,8.396c-0.09,0.502,0.014,0.932,0.311,1.293l8.492-0.539l0.436-2.477
			c-0.861,0-1.819,0.34-2.871,1.023c-1.055,0.684-2.154,1.021-3.303,1.021c0.09-0.502,0.583-0.861,1.482-1.074
			c0.97-0.217,1.564-0.541,1.785-0.971C37.138,84.113,36.998,83.896,37.074,83.467z M55.822,20.492
			c-2.134,0.289-3.69,0.575-4.673,0.861c-0.504,0-0.81,0.107-0.918,0.322c-0.234,0.504-0.576,0.826-1.031,0.969l0.074-0.43
			c-1.068,0.359-2.175,0.933-3.317,1.723c-1.146,0.791-1.931,1.184-2.362,1.184c0.941,0.36,2.027,0.503,3.262,0.432
			c1.231-0.071,2.186,0.215,2.862,0.86c-0.364,0.431-1.254,1.006-2.673,1.723l-3.279,1.507c-0.866,0.43-1.538,0.791-2.02,1.078
			h3.338c0.074-0.432,0.568-0.79,1.48-1.078c1.691-0.646,2.609-0.969,2.755-0.969c0.733-0.501,1.437-1.542,2.112-3.121
			c0.67-1.578,1.211-2.602,1.617-3.069c0.404-0.464,0.852-0.771,1.344-0.914S55.36,21.067,55.822,20.492z M38.918,54.08
			c4.881-1.219,7.429-1.828,7.645-1.828l0.568-3.233c-0.404-0.143-0.594-0.501-0.563-1.076c0.028-0.573,0.009-0.969-0.061-1.184
			c-0.069-0.216-0.231-0.323-0.481-0.323c-0.252,0-0.519,0.09-0.801,0.269c-0.283,0.18-0.551,0.377-0.804,0.593l-1.014,0.86
			c0.463,0.216,1.09,0.324,1.881,0.324c-0.215,1.221-0.997,2.19-2.342,2.907c-0.64,0.359-1.309,0.699-2.011,1.023
			c-0.703,0.322-1.352,0.736-1.941,1.236L38.918,54.08z M42.998,55.371c-0.241,0.145-0.579,0.232-1.017,0.27
			c-0.438,0.035-0.877,0.09-1.32,0.16c-1.114,0.215-1.703,0.504-1.766,0.861l-0.076,0.43c1.219,0,2.408-0.23,3.568-0.697
			c1.158-0.467,2.346-0.701,3.567-0.701l0.36-2.045l-4.104,1.291L42.998,55.371z M49.375,19.199l-1.748,0.755
			c-0.553,0.288-1.076,0.61-1.57,0.97C47.85,20.923,48.958,20.35,49.375,19.199z M42.549,71.949
			c-0.641,0.791-1.391,1.275-2.247,1.453c-0.858,0.182-1.679,0.664-2.464,1.453c0.933,0,1.711-0.143,2.338-0.43
			c0.623-0.285,1.295-0.432,2.014-0.432L42.549,71.949z M38.878,78.732c0.573,0,1.038-0.199,1.396-0.594
			c0.355-0.393,0.972-0.627,1.846-0.699l-0.253-1.615c-0.405-0.143-0.698-0.215-0.878-0.215c-0.179,0-0.356,0.092-0.531,0.268
			c-0.176,0.184-0.359,0.414-0.553,0.701c-0.545,0.646-1.33,1.221-2.35,1.721h1.83L38.878,78.732z M56.049,13.709
			c-1.833,0.216-3.141,0.503-3.92,0.861l-1.64,0.754l-0.096,0.538C53.193,15.863,55.077,15.146,56.049,13.709z M50.895,19.74
			l2.679-0.541c0.071,0,0.171,0.146,0.301,0.433c0.128,0.288,0.371,0.431,0.731,0.431c0.357,0,0.584-0.055,0.675-0.162
			c0.089-0.107,0.507-0.232,1.25-0.378l-0.095,0.54c0.611-0.216,1.068-0.467,1.371-0.754c0.301-0.287,0.662-0.609,1.086-0.97
			c0.357,0,0.557,0.091,0.598,0.271c0.039,0.18,0.203,0.268,0.491,0.268c-0.326,0.215-0.695,0.684-1.108,1.4
			c-0.037,0.215,0.141,0.521,0.539,0.915c0.396,0.396,0.631,0.592,0.703,0.592c0.5,0,0.857-0.592,1.066-1.776
			c0.209-1.184,0.316-2.314,0.329-3.391c0.01-1.076-0.56-1.614-1.707-1.614l-0.38,0.322l0.768,0.538
			c-1.361,0.791-2.793,1.383-4.297,1.777C54.388,18.035,52.722,18.735,50.895,19.74z M40.836,82.283
			c-0.01-0.357,0.018-0.717,0.08-1.076l0.21-1.184l-0.835,2.906L40.836,82.283z M57.213,11.988c-1.579,0-2.659,0.43-3.242,1.291
			c0.574,0,1.242-0.125,2.005-0.377C56.737,12.652,57.15,12.347,57.213,11.988z M56.791,15.002
			c-0.353,0.359-0.741,0.628-1.166,0.806c-0.427,0.182-0.821,0.485-1.184,0.916c0.501,0,0.995-0.053,1.481-0.162
			c0.484-0.107,0.791-0.52,0.918-1.237L56.791,15.002z M51.475,45.144l6.61-0.861l0.284-1.615h-1.291l0.525-0.537
			c-0.287,0-0.668,0.125-1.143,0.375c-0.475,0.254-0.984,0.486-1.523,0.7c-1.503,0.79-2.613,1.185-3.33,1.185L51.475,45.144z
			 M59.142,38.9c-1.075,0-2.627,0.861-4.653,2.584c-0.506,0.43-0.9,0.826-1.178,1.184c1.076,0,2.264-0.322,3.562-0.968
			C58.17,41.053,58.926,40.121,59.142,38.9z"/>
		<path fill="#EC0088" d="M154.612,88.875l-9.423,0.322c-2.226,0-4.546-0.469-6.966-1.4c-4.793-1.721-8.258-2.619-10.398-2.691
			l-0.335-0.539l1.804-10.227c0.051-0.287,0.576-0.43,1.582-0.43c1.004,0,2.129,0.234,3.375,0.701
			c1.245,0.465,2.535,0.984,3.869,1.561c3.348,1.363,5.738,2.045,7.176,2.045c1.723,0,3.65-0.359,5.788-1.076
			c-0.048-0.145-0.022-0.484,0.071-1.023c0.096-0.539,0.479-1.186,1.15-1.938c0.671-0.754,1.113-1.738,1.329-2.961
			c0.215-1.219-0.085-2.17-0.896-2.854c-0.813-0.68-1.834-1.199-3.063-1.559s-2.484-0.664-3.768-0.916
			c-1.284-0.252-2.144-0.574-2.574-0.969c-0.433-0.395-0.925-0.771-1.47-1.131c-0.547-0.359-1.076-0.719-1.586-1.078
			c-1.415-0.932-2.07-1.686-1.97-2.26c-1.659-0.357-3.186-3.301-4.579-8.826l-0.025-1.076c-0.019-0.717,0.094-1.758,0.335-3.123
			c0.239-1.362,0.958-2.997,2.155-4.899c1.195-1.9,2.668-3.533,4.416-4.898c3.723-2.797,7.881-4.197,12.475-4.197
			c0.645,0,2.669,0.323,6.072,0.969c6.231,1.292,10.531,1.938,12.9,1.938c1.076,0,1.498,2.081,1.268,6.242
			c-0.047,1.077-0.159,2.119-0.336,3.123c-0.493,2.798-1.244,4.198-2.247,4.198l-0.413-0.107c-1.006-2.439-3.486-3.839-7.439-4.198
			c-0.706-0.071-1.039-0.216-1.001-0.431h-1.508c-4.521,0-7.825,0.824-9.909,2.475c-0.918,0.719-1.495,1.76-1.735,3.124
			c-0.24,1.365,0.261,2.494,1.501,3.393c1.242,0.896,2.854,1.721,4.839,2.473c1.983,0.754,4.132,1.49,6.446,2.207
			c2.313,0.719,4.408,1.652,6.289,2.799c4.482,2.656,6.295,6.426,5.434,11.305c-0.568,3.23-2.078,6.082-4.523,8.559
			c-2.445,2.475-5.205,4.287-8.277,5.436c-0.996,0.359-1.949,0.77-2.856,1.238C156.68,88.641,155.688,88.875,154.612,88.875z
			 M136.272,79.938l-0.912-0.322c-1.436,0-2.6,0.289-3.489,0.861c-0.892,0.576-1.354,0.969-1.393,1.184
			c-0.148,0.432-0.104,0.791,0.134,1.078C132.827,82.379,134.713,81.445,136.272,79.938z M151.795,40.429
			c1.585-0.645,2.798-1.111,3.639-1.398c0.839-0.285,1.637-0.431,2.391-0.431c0.753,0,1.086,0.253,0.997,0.755
			c-0.024,0.143-4.565,2.081-13.62,5.813h-0.969l-7.662,3.767l-0.075,0.431h0.968c0.359,0,2.777-0.896,7.258-2.69
			c4.478-1.794,7.048-2.835,7.709-3.122c0.659-0.287,1.463-0.663,2.405-1.13c0.944-0.466,1.929-0.969,2.958-1.509
			c1.026-0.537,1.998-1.057,2.912-1.559s1.568-0.863,1.967-1.078c-0.25-0.215-0.637-0.357-1.162-0.431
			c-0.525-0.07-1.051-0.144-1.576-0.216c-0.527-0.068-1.018-0.142-1.471-0.215c-0.454-0.07-0.686-0.285-0.692-0.645l-10.075,4.628
			C148.844,41.399,150.21,41.078,151.795,40.429z M144.555,43.336l-0.949-0.106c-1.291,0-2.69,0.395-4.191,1.184
			c-1.504,0.791-2.338,1.652-2.502,2.584C140.653,46.136,143.2,44.917,144.555,43.336z M140.739,52.166
			c1.764-0.648,3.21-1.111,4.338-1.4c0.069,0,0.25-0.197,0.534-0.592c0.285-0.395,0.614-0.843,0.991-1.347
			c1.27-1.507,2.289-2.403,3.059-2.69l0.095-0.538c-1.022,0.503-2.128,0.969-3.315,1.399c-1.189,0.431-2.402,0.896-3.639,1.398
			c-2.773,1.076-4.896,2.334-6.369,3.77c1.006,0,2.227-0.412,3.664-1.238c1.437-0.825,2.549-1.437,3.336-1.831
			c0.786-0.395,1.575-0.594,2.365-0.594c-0.075,0.431-0.873,1.078-2.387,1.94C141.895,51.305,141.004,51.879,140.739,52.166z
			 M145.973,37.74c-0.208,0.359-0.67,0.645-1.389,0.86c-0.723,0.216-1.466,0.468-2.232,0.755c-1.995,0.717-3.104,1.723-3.332,3.014
			h0.647c0.573,0,2.536-0.646,5.886-1.939c3.35-1.291,5.18-2.008,5.492-2.152c-0.705-0.07-1.049-0.16-1.029-0.268
			c0.02-0.109,0.188-0.252,0.507-0.432c0.317-0.179,0.676-0.377,1.074-0.593c1.079-0.431,1.665-0.896,1.753-1.398
			c-2.871,0-4.807,0.394-5.807,1.185L145.973,37.74z M137.079,53.994c-0.107,1.006,0.272,1.508,1.134,1.508
			c1.004,0,2.21-0.43,3.619-1.291c1.407-0.861,2.406-1.543,2.998-2.045c-1.237,0.502-2.511,0.809-3.821,0.914
			C139.697,53.188,138.387,53.494,137.079,53.994z M145.284,81.338c-1.201-0.932-3.594-1.4-7.182-1.4
			c-0.494,0.361-1.021,0.701-1.58,1.023c-0.559,0.324-1.123,0.664-1.688,1.021c-1.275,0.719-1.918,1.115-1.932,1.186l0.521,0.109
			C135.288,83.277,139.243,82.631,145.284,81.338z M139.77,57.654l0.716,2.045c0.358,0,1.062-0.324,2.109-0.969
			c1.95-1.291,2.956-2.115,3.02-2.475c-0.06-0.07-0.215-0.109-0.465-0.109c-0.253,0-0.642,0.072-1.169,0.217
			c-0.527,0.143-1.06,0.305-1.592,0.484c-0.535,0.178-1.047,0.34-1.539,0.482C140.356,57.475,139.999,57.582,139.77,57.654z
			 M144.442,83.061l-0.805-0.322c-0.287,0-0.82,0.072-1.6,0.215c-0.779,0.145-1.576,0.287-2.391,0.432
			c-2.073,0.359-3.444,0.609-4.115,0.754c1.178,0.645,2.482,0.967,3.919,0.967L144.442,83.061z M140.954,55.826h0.754
			c1.004,0,1.824-0.072,2.461-0.217c0.633-0.143,1.137-0.252,1.51-0.322c0.371-0.072,0.57-0.18,0.595-0.324l-0.703-1.506
			L140.954,55.826z M149.643,59.053c-1.26,0.215-4.104,0.684-8.536,1.4c-0.013,0.072,0.112,0.18,0.374,0.322l0.874,0.539
			c0.726,0.361,1.304,0.537,1.734,0.537L149.643,59.053z M149.459,57.654l-1.551-0.969c-1.191,0.645-2.154,1.111-2.885,1.398
			c-0.734,0.287-1.178,0.469-1.333,0.537l0.893,0.432c0.168-0.143,0.753-0.305,1.753-0.484c1.002-0.178,1.838-0.34,2.508-0.484
			L149.459,57.654z M159.192,60.453c-2.184-0.646-4.1-0.971-5.75-0.971c-3.301,0-5.691,0.934-7.168,2.801
			c1.867,0,3.984-0.215,6.357-0.646C155.004,61.207,157.192,60.813,159.192,60.453z M165.004,78.162
			c-1.075,0.395-2.434,0.773-4.074,1.131c-1.643,0.359-3.346,0.752-5.107,1.184s-3.555,0.934-5.379,1.506
			c-4.533,1.295-7.285,2.441-8.251,3.445c1.22,0,3.56-0.34,7.017-1.021s6.411-1.256,8.861-1.723
			c2.451-0.467,4.684-0.916,6.697-1.346c0.637-0.359,1.27-0.896,1.899-1.613c0.628-0.719,1.007-1.436,1.134-2.154
			C167.009,77.57,166.078,77.768,165.004,78.162z M146.567,63.684c2.182,0.646,3.774,0.969,4.779,0.969
			c1.006,0,1.762-0.125,2.273-0.377c0.51-0.252,1.021-0.502,1.533-0.754c0.51-0.25,1.02-0.502,1.531-0.754
			c0.512-0.25,1.091-0.377,1.736-0.377l0.095-0.539c-0.24,0.146-0.979,0.254-2.21,0.324c-1.234,0.072-2.574,0.145-4.021,0.215
			C148.574,62.68,146.667,63.109,146.567,63.684z M158.936,85.105l-1.272-0.107c-0.79,0-1.521,0.07-2.192,0.215
			c-0.67,0.143-1.365,0.215-2.082,0.215c0.285,0,0.481-0.287,0.582-0.861l-6.781,1.83c0.295,0.359,0.766,0.539,1.412,0.539
			C151.975,86.936,155.418,86.326,158.936,85.105z M165.006,64.113l-5.275-1.83c-0.359,0-1.367,0.521-3.021,1.561
			c-1.655,1.043-2.532,1.635-2.628,1.777C158.174,65.621,161.815,65.121,165.006,64.113z M155.344,74.34
			c-0.469,0.217-1.705,1.939-3.711,5.17c-0.025,0.143,0.068,0.32,0.283,0.535c0.212,0.217,0.391,0.324,0.535,0.324
			c0.889-1.793,5.755-3.945,14.594-6.459l0.096-0.537c-2.652,0.789-5,1.184-7.045,1.184S156.465,74.486,155.344,74.34z
			 M165.415,38.6c-0.25-0.216-0.681-0.323-1.289-0.323c-0.611,0-1.139,0.145-1.584,0.432s-0.918,0.629-1.418,1.021
			c-0.5,0.396-0.965,0.791-1.393,1.184c-0.43,0.396-0.77,0.701-1.021,0.916h0.537L165.415,38.6z M155.59,67.451
			c-0.115,0.646,0.223,0.969,1.014,0.969c1.576,0,3.046-0.393,4.406-1.184c1.358-0.789,2.135-1.328,2.33-1.615
			c-2.225,0-4.058,0.215-5.496,0.646C156.404,66.697,155.653,67.094,155.59,67.451z M160.444,42.369
			c1.096,0.287,2.093,0.43,2.991,0.43c0.896,0,1.755-0.394,2.577-1.184c0.82-0.789,1.486-1.615,1.998-2.477
			c-1.222,0-2.459,0.413-3.717,1.238C163.034,41.203,161.751,41.867,160.444,42.369z M168.014,68.42l-0.52-0.107
			c-0.359,0-0.674,0.053-0.943,0.16c-0.271,0.109-0.801,0.27-1.592,0.486c-0.793,0.215-1.742,0.412-2.85,0.592
			c-1.109,0.18-2.076,0.377-2.904,0.592c-1.931,0.361-2.987,1.076-3.178,2.154c-0.025,0.145-0.043,0.34-0.051,0.59
			c-0.008,0.254-0.025,0.451-0.051,0.594L168.014,68.42z M168.28,66.914c-0.677-0.646-1.408-0.969-2.197-0.969l-7.921,2.797
			l-0.095,0.539C163.968,68.779,167.373,67.988,168.28,66.914z M158.725,73.48c7.464,0,11.304-0.609,11.52-1.83
			c0.277-1.578-0.229-2.369-1.521-2.369l-9.365,3.66L158.725,73.48z M168.383,76.709c0.684-0.215,1.068-0.574,1.158-1.076
			c0.203-1.146,0.123-1.723-0.234-1.723l-9.904,3.66l-0.113,0.646c1.435,0,2.957-0.395,4.569-1.184
			c1.608-0.789,3.169-1.186,4.677-1.186L168.383,76.709z M168.795,39.569c-0.102,0.575-0.43,1.114-0.984,1.615
			c-0.557,0.503-0.852,0.86-0.889,1.075c-0.039,0.217,0.066,0.323,0.318,0.323c0.251,0,0.735-0.304,1.453-0.915
			c0.717-0.608,1.197-0.984,1.438-1.13C169.885,39.892,169.441,39.569,168.795,39.569z M167.194,43.767
			c1.156,0.359,2.201,0.539,3.135,0.539l0.285-1.615C168.891,42.691,167.75,43.051,167.194,43.767z"/>
		<path fill="#EC0088" d="M206.378,76.9c1.65,0,2.158,1.797,1.525,5.383l-0.286,1.613c-0.263,1.51-0.626,2.746-1.084,3.717
			c-0.458,0.969-0.867,1.453-1.225,1.453h-2.367c-3.086,0-5.895-0.164-8.42-0.484c-2.525-0.324-4.693-1.061-6.5-2.207
			c-1.807-1.148-3.056-2.422-3.739-3.822c-0.688-1.4-1.166-2.961-1.436-4.684c-0.521-3.156-0.477-6.459,0.131-9.904l2.025-9.043
			l1.342-10.655l0.428-1.831c-0.548-0.143-0.837-0.433-0.87-0.862c-0.031-0.43-0.226-0.645-0.585-0.645
			c-1.652,1.221-3.051,1.83-4.196,1.83c-0.36,0-0.454-0.484-0.283-1.453c0.17-0.97,0.624-1.705,1.358-2.207
			c-0.682-0.216-0.816-1.471-0.411-3.769l0.999-5.06c1.044-0.646,2.682-0.969,4.907-0.969l3.045,0.43l1.386-9.688
			c0.189-1.076,0.563-1.884,1.127-2.422c0.562-0.539,1.881-0.807,3.964-0.807l4.857,0.537c0.285,0,0.636-0.161,1.053-0.484
			c0.415-0.323,1.001-0.483,1.756-0.483c0.753,0,1.415,0.106,1.986,0.322c0.572,0.215,0.964,0.538,1.176,0.97
			c0.328,0.574,0.349,1.686,0.059,3.337l-0.355,5.06l-0.785,3.229l10.628-0.431c0.214,0,0.386,0.037,0.518,0.108
			c0.13,0.072,0.154,0.359,0.063,0.861l-1.783,10.118c-0.126,0.719-0.447,1.311-0.961,1.777c-0.513,0.466-1.13,0.699-1.845,0.699
			l-5.32-0.97c-1.361,0-2.788,0.146-4.274,0.431c-0.911,1.509-1.638,3.805-2.183,6.89c-0.545,3.086-0.773,6.727-0.688,10.924
			c0.082,4.201-0.151,8.49-0.709,12.867c0.102,0.646,0.619,0.967,1.553,0.967c0.933,0,1.705-0.105,2.316-0.32
			C204.887,77.01,205.586,76.9,206.378,76.9z M184.41,38.47l-0.012,3.121c-0.101,0.575-0.345,0.934-0.728,1.076
			c0.236,0.289,0.461,0.432,0.678,0.432c0.645,0,1.843-0.682,3.59-2.045c3.313-2.514,5.008-3.984,5.084-4.415
			c-0.962,0.576-2.054,0.861-3.273,0.861l0.246-1.399h-4.735c-0.073,0-0.216,0.307-0.431,0.916S184.473,38.111,184.41,38.47z
			 M191.882,41.268c-0.329,0.647-0.727,0.97-1.191,0.97c-0.467,0-1.027-0.18-1.683-0.539l-3.626,2.261h3.659
			c0.07,0,0.127,0.092,0.167,0.269c0.04,0.181,0.112,0.378,0.219,0.594c0.105,0.215,0.174,0.43,0.21,0.645l5.489-1.829
			c0.532-0.574,1.217-1.005,2.057-1.292c0.841-0.287,1.716-0.574,2.63-0.86c2.577-0.79,4.236-1.651,4.976-2.585h-1.399
			l-11.257,2.799L191.882,41.268z M196.742,45.466c-1.084,0.431-2.059,0.684-2.932,0.755c-0.875,0.072-1.647,0.179-2.318,0.323
			c-1.489,0.287-2.4,1.398-2.743,3.336l-0.111,0.647c-0.052,0.287-0.074,0.611-0.064,0.967c1.271-1.506,2.552-2.563,3.843-3.174
			c1.292-0.608,2.347-1.094,3.163-1.453c0.818-0.359,1.636-0.824,2.453-1.4H196.742z M195.326,63.875
			c-1.564,0.717-2.804,1.148-3.727,1.291c-0.925,0.145-1.728,0.322-2.408,0.539c-1.369,0.432-2.672,1.904-3.9,4.414
			c1.716-0.789,3.381-1.686,4.996-2.691c1.61-1.004,3.258-2.01,4.942-3.016L195.326,63.875z M198.156,55.156
			c-0.794,0-1.83,0.395-3.116,1.184c-2.516,1.65-4.136,2.689-4.856,3.121c-1.914,1.076-3.014,2.441-3.305,4.09l-0.077,0.432
			c-0.025,0.145-0.016,0.287,0.033,0.43l8.166-4.197c-0.933,0-1.824,0.18-2.677,0.537c-0.854,0.361-1.532,0.539-2.033,0.539
			c-0.502,0-0.857-0.018-1.069-0.055c-0.208-0.035-0.384-0.053-0.527-0.053l0.614-0.432l8.354-2.797L198.156,55.156z
			 M198.768,49.235c-0.24,0.144-0.873,0.376-1.899,0.7c-1.026,0.323-2.13,0.684-3.312,1.077c-1.182,0.396-2.229,0.734-3.14,1.023
			l-1.456,0.324l-0.495,2.797h0.432c1.219,0,4.026-1.469,8.422-4.412c0.961-0.574,1.452-0.917,1.471-1.025
			c0.02-0.108,0.004-0.231-0.041-0.378L198.768,49.235z M188.068,57.416c0.332,0.145,0.449,0.502,0.347,1.076
			c-0.036,0.215-0.088,0.396-0.147,0.537c-0.063,0.146-0.098,0.252-0.11,0.322l2.172-1.936c-0.065,0.359,0.011,0.539,0.227,0.539
			c0.432,0,0.811-0.127,1.143-0.377c0.331-0.252,0.841-0.596,1.525-1.023c0.688-0.432,1.392-0.861,2.113-1.293
			c1.779-1.145,2.685-1.791,2.709-1.936l-6.425,2.26C190.256,55.586,189.071,56.195,188.068,57.416z M192.678,70.334
			c-0.43,0-1.329,0.217-2.696,0.646l-3.078,0.969c-0.683,0.217-1.032,0.359-1.044,0.432l-0.246,1.398l6.952-2.799L192.678,70.334z
			 M193.333,32.441c0.235,0.288,0.329,0.576,0.279,0.861c0.716,0,1.704-0.196,2.956-0.592c1.254-0.395,2.159-0.951,2.716-1.668
			l-1.811-0.107C194.89,30.935,193.51,31.437,193.333,32.441z M202.912,23.291l-7.744-0.645l-0.419,2.368
			c0.211,0.431,0.313,0.771,0.307,1.022c-0.012,0.252,0.363,0.377,1.115,0.377c0.754,0,1.686-0.305,2.8-0.916
			c1.112-0.608,2.205-0.914,3.281-0.914c0.172-0.144,0.56-0.324,1.174-0.539c0.61-0.215,1.056-0.501,1.335-0.861
			c-0.374,0.072-0.702,0.107-0.986,0.107C203.486,23.291,203.198,23.291,202.912,23.291z M196.011,72.811l-1.868,0.217
			c-0.576,0-1.727,0.213-3.45,0.645c-3.156,0.789-4.778,1.453-4.874,1.99c-0.094,0.539-0.146,1.131-0.151,1.777
			c-0.006,0.645,0.313,0.969,0.959,0.969c0.287,0,1.435-0.609,3.444-1.83C193.271,74.713,195.25,73.455,196.011,72.811z
			 M197.566,63.982c-1.415,1.506-3.037,2.676-4.869,3.5c-1.83,0.824-3.537,1.848-5.116,3.068c1.077,0,2.39-0.324,3.94-0.971
			c2.941-1.219,4.913-1.828,5.92-1.828l0.587-3.34L197.566,63.982z M200.345,45.791c-1.438,0-3.861,1.148-7.283,3.444
			c-0.806,0.503-1.379,0.898-1.715,1.185c-0.025,0.145,0.105,0.215,0.393,0.215c0.286,0,0.882-0.125,1.79-0.376
			c0.904-0.251,1.555-0.485,1.953-0.7c0.218-0.431,0.575-0.734,1.076-0.916c0.496-0.178,0.976-0.339,1.431-0.483
			C199.367,47.658,200.155,46.867,200.345,45.791z M195.073,30.504c1.435,0,2.796-0.287,4.081-0.862
			c1.286-0.572,2.394-0.861,3.327-0.861c0.933,0,1.601-0.322,2.002-0.969c0.401-0.646,0.852-1.577,1.355-2.798
			c-1.078,0-2.056,0.252-2.933,0.753c-0.88,0.502-1.745,1.041-2.599,1.614c-0.855,0.575-1.688,1.114-2.493,1.615
			c-0.808,0.503-1.676,0.753-2.607,0.753L195.073,30.504z M193.632,38.685l9.25-4.844l0.17-0.97
			c-1.398,1.007-2.854,1.741-4.372,2.208s-3.08,0.986-4.688,1.56L193.632,38.685z M203.3,35.132
			c-0.929,0.791-2.24,1.507-3.935,2.154c-3.085,1.221-5.096,2.26-6.038,3.121l4.479-0.969l0.417-0.539l0.444,0.539
			c0.648-0.431,1.68-0.789,3.097-1.077c1.412-0.285,2.389-0.538,2.931-0.753c0.54-0.215,0.848-0.539,0.924-0.97
			c-1.148,0-1.751-0.251-1.807-0.753c0.039-0.215,0.052-0.393,0.043-0.539C203.844,35.205,203.659,35.132,203.3,35.132z
			 M187.81,80.238c-0.398,0.215-0.612,0.43-0.649,0.646c-0.038,0.215,0.093,0.484,0.394,0.807c0.304,0.324,0.616,0.484,0.938,0.484
			s0.951-0.195,1.88-0.592c0.931-0.393,1.914-0.877,2.947-1.453c2.55-1.434,3.89-2.512,4.015-3.23h-0.646L187.81,80.238z
			 M203.636,32.011l0.911-1.507c-1.508,0-4.064,1.075-7.673,3.228c-0.808,0.504-1.237,0.9-1.287,1.186l3.128-0.646L203.636,32.011z
			 M193.739,62.799c0.985-0.502,1.909-0.756,2.771-0.756c0.86,0,1.29,0.217,1.286,0.648l0.094-0.541
			c0.024-0.141,0.076-0.34,0.158-0.59c0.078-0.252,0.094-0.539,0.045-0.863c-0.053-0.322-0.185-0.482-0.399-0.482l-6.94,3.336
			C191.759,63.551,192.752,63.301,193.739,62.799z M195.359,84.436c0.845-0.715,1.604-1.361,2.279-1.936
			c1.351-1.148,2.033-1.758,2.046-1.832l0.077-0.43h-0.863c-1.076,0-3.035,0.629-5.876,1.885s-4.393,2.027-4.659,2.313H195.359z
			 M189.964,78.408c1.271-0.285,3.857-1.723,7.757-4.307c0.051-0.285,0.058-0.537,0.025-0.754
			C194.854,74.283,192.26,75.969,189.964,78.408z M193.293,71.734l0.608,0.215c2.191-0.215,3.325-0.539,3.4-0.969l0.17-0.969
			L193.293,71.734z M202.574,43.529c0.645,0,1.085,0.145,1.322,0.431c1.435,0,2.967-0.142,4.598-0.431
			c1.63-0.285,3.232-0.43,4.811-0.43l1.324-5.061c-4.354,1.076-7.516,2.117-9.485,3.123c-1.972,1.005-3.159,1.829-3.56,2.476
			L202.574,43.529z M196.07,85.297h0.537c1.005,0,2.306-0.465,3.907-1.4c3.102-1.721,4.742-3.084,4.92-4.09L196.07,85.297z
			 M206.441,36.856l0.83,1.399l-1.254,1.615l8.491-4.199c-0.235-0.287-0.733-0.431-1.487-0.431c-0.75,0-1.497,0.054-2.231,0.16
			c-0.74,0.108-1.413,0.271-2.025,0.485C207.264,36.246,206.491,36.568,206.441,36.856z M197.835,86.268
			c0.523,0.285,1.306,0.43,2.347,0.43c1.042,0,1.924-0.125,2.65-0.377c0.727-0.25,1.234-1.201,1.527-2.854L197.835,86.268z"/>
		<path fill="#EC0088" d="M257.259,75.887l-0.616,2.848l-0.495,4.1l0.396,0.34c-2.858,2.432-5.289,3.949-7.293,4.557
			c-2.819,0.91-5.48,1.367-7.984,1.367c-4.252,0-7.294-0.191-9.123-0.572c-5.325-0.379-8.922-1.707-10.799-3.984
			c-1.67,0-3.172-0.529-4.501-1.594c-2.359-2.125-3.397-3.984-3.116-5.58l0.195-0.457c-0.586-0.984-0.966-2.275-1.142-3.869
			c-0.224-3.035-0.552-5.049-0.984-6.037l0.159-0.908c-0.008-0.381,0.021-0.76,0.088-1.143c0.067-0.379,0.214-1.213,0.439-2.504
			c0.563-3.189,1.319-5.846,2.262-7.969c0.944-2.125,1.695-3.492,2.261-4.099c0.563-0.608,1.242-1.672,2.044-3.19
			c1.213-2.581,3.844-5.239,7.895-7.971c0.714-0.607,2.385-1.482,5.018-2.62c5.322-2.2,8.76-3.302,10.317-3.302
			c1.555,0,3.1,0.189,4.626,0.569c1.527,0.38,3.073,0.872,4.635,1.479c3.959,1.67,6.487,3.037,7.591,4.1
			c1.103,1.064,1.915,2.26,2.442,3.586c0.523,1.33,0.888,2.716,1.088,4.158c0.296,2.203,0.271,5.352-0.073,9.452
			c-0.239,1.365-0.478,2.162-0.704,2.391c-0.229,0.227-0.371,0.494-0.426,0.797c-0.053,0.303,0.109,0.455,0.488,0.455
			c-0.735,0.305-1.133,0.607-1.186,0.912l-0.008,0.684c-0.132,0.758-1.412,1.328-3.83,1.707c-4.702,0.836-10.072,1.48-16.11,1.936
			c-6.044,0.457-9.403,0.684-10.085,0.684h-1.595c-0.305,0-0.526-0.037-0.664-0.111c-0.21,4.631,2.56,7.439,8.308,8.426
			c1.1,0.229,1.682,0.568,1.754,1.025l0.517-0.344h10.363c1.594,0,3.473-0.758,5.639-2.275c0.432-0.303,0.657-0.494,0.669-0.572
			C257.159,72.355,257.674,73.535,257.259,75.887z M227.849,55.391c-3.192,0.455-4.801,0.758-4.827,0.91l-0.101,0.568
			c1.744,0,3.108-0.188,4.084-0.568c0.685,0,0.986,0.227,0.905,0.682c-0.079,0.455-0.378,0.854-0.896,1.197
			c-0.514,0.34-0.926,0.512-1.229,0.512c-0.302,0-0.594-0.076-0.87-0.229c-0.661,0.305-1.62,0.797-2.88,1.48l-3.148,1.709
			c-0.087-0.379-0.266-0.531-0.543-0.455c-0.282,0.076-0.501-0.076-0.663-0.457c0.396-0.529,1.319-1.025,2.768-1.48
			c1.446-0.455,2.348-0.836,2.707-1.137l-1.802-0.115l-4.088,0.57c-0.381,0-0.677-0.039-0.891-0.115l-1.474,3.189
			c0.418,0.229,0.569,0.646,0.464,1.252c-0.107,0.607,0.217,0.912,0.978,0.912c0.758,0,1.723-0.305,2.893-0.912
			c1.17-0.605,2.346-1.252,3.531-1.938c3.445-1.895,5.567-2.844,6.366-2.844c0.797,0,1.35,0.189,1.664,0.568
			c-0.067,0.381-0.545,0.721-1.432,1.023c-0.891,0.307-1.75,0.646-2.574,1.025c0.29,0.078,0.369,0.496,0.236,1.254
			c-0.081,0.455-0.703,0.854-1.863,1.195c-1.161,0.342-1.867,0.59-2.122,0.74l0.081-0.457c-0.685,0-1.079,0.307-1.187,0.914
			l-0.042,0.229c-0.013,0.074,0.01,0.15,0.074,0.227c1.29,0,2.344-0.285,3.17-0.855c0.819-0.568,1.762-0.854,2.826-0.854
			c0.107-0.607,0.512-1.082,1.217-1.424s1.363-0.512,1.971-0.512l-0.081,0.455l1.446-0.455l-0.372-0.457
			c0.355-0.301,0.685-0.455,0.989-0.455c0.302,0,0.428,0.154,0.375,0.455c1.929-0.607,4.07-0.91,6.423-0.91
			c-0.675,0.381-1.51,0.703-2.504,0.969c-0.997,0.266-1.968,0.512-2.921,0.738c-2.716,0.762-4.245,1.254-4.588,1.48l-0.101,0.57
			l13.652-0.57l1.741,0.455c1.663-0.834,3.085-1.252,4.263-1.252c1.176,0,2.188-0.037,3.039-0.113l6.082-0.91l1.072-0.912
			c-0.37-0.074-0.523-0.264-0.471-0.57c0.052-0.303,0.104-0.492,0.158-0.568c0.051-0.074,0.084-0.152,0.097-0.227
			c-1.413,0.682-2.516,1.023-3.312,1.023c-0.798,0-1.347-0.02-1.642-0.055c-0.296-0.039-0.522-0.059-0.675-0.059l0.993-0.455
			l-0.262-0.455l-3.43,1.365c-0.1-0.301-0.433-0.455-1.002-0.455s-0.936,0.039-1.1,0.113c-0.168,0.078-0.385,0.227-0.652,0.455
			c-0.535,0.455-1.786,0.875-3.75,1.254l-0.408-0.912c-0.106,0.609-0.91,1.064-2.405,1.367s-2.396,0.455-2.699,0.455
			c-0.684,0-0.984-0.227-0.903-0.682c0.1-0.152,0.87-0.418,2.303-0.797c2.611-0.607,4.115-1.18,4.515-1.709
			c-0.706-0.303-1.172-0.455-1.4-0.455l-2.242,0.455c-0.457,0-0.672-0.074-0.646-0.229c0.054-0.305,0.74-0.531,2.058-0.684
			c0.383-0.455,1.053-0.797,2.003-1.025c0.95-0.227,1.938-0.455,2.966-0.684c2.613-0.605,4.02-1.061,4.229-1.363
			c-2.962,0-5.406,0.303-7.335,0.91c-0.417-0.227-0.563-0.684-0.443-1.365h-2.049l-0.598,0.795l0.813,0.57l-0.617,0.91l-5.927,2.619
			h-1.71c0.956-0.684,2.056-1.215,3.3-1.596c1.244-0.377,2.288-1.023,3.133-1.934h-1.367c0.202-0.301,0.507-0.512,0.907-0.627
			c0.398-0.115,0.614-0.264,0.648-0.455c0.034-0.189-0.02-0.322-0.157-0.398c-0.139-0.076-0.194-0.189-0.167-0.34
			c-0.586,0.303-2.623,0.455-6.115,0.455h-2.96c-0.381,0-0.766,0.133-1.153,0.396c-0.389,0.268-0.715,0.398-0.98,0.398
			C228.947,55.73,228.492,55.617,227.849,55.391z M215.064,68.484c0.314-0.074,0.777-0.207,1.378-0.398
			c0.604-0.186,1.229-0.4,1.877-0.625c1.6-0.457,2.406-0.721,2.419-0.799l0.554-0.566c-0.937,0.15-1.922,0.359-2.956,0.625
			c-1.034,0.264-2.044,0.398-3.03,0.398L215.064,68.484z M224.151,51.178c0.147-0.836-0.423-1.252-1.714-1.252
			c-2.505,0-3.893,0.758-4.159,2.278l-0.242,1.365c0.179-0.152,1.223-0.588,3.136-1.307
			C223.081,51.537,224.074,51.178,224.151,51.178z M223.854,74.18l-6.685,0.455c-0.61,0-0.882-0.172-0.821-0.512
			c0.061-0.344,0.512-0.76,1.36-1.254c0.844-0.492,1.801-0.969,2.869-1.422c2.705-1.141,4.361-1.711,4.971-1.711h-7.517
			l-0.409-0.908c-0.272,0.684-0.693,1.137-1.265,1.365c-0.573,0.227-0.899,0.57-0.979,1.025c-0.079,0.455-0.116,1.08-0.104,1.879
			c0.013,0.797,0.059,1.615,0.141,2.449c0.307,2.125,0.858,3.188,1.656,3.188c0.796,0,1.681-0.172,2.652-0.512
			c0.971-0.344,1.915-0.742,2.83-1.197c0.914-0.455,1.773-0.91,2.576-1.365c0.801-0.457,1.413-0.797,1.833-1.025
			C226.18,74.332,225.144,74.18,223.854,74.18z M219.39,54.936c2.578,0,4.837-0.305,6.767-0.912l0.829,0.457
			c0.518-1.215,0.891-2.469,1.119-3.76c-1.064,0-2.379,0.457-3.943,1.369c-1.564,0.908-2.748,1.592-3.548,2.047
			c-0.804,0.457-1.551,0.723-2.248,0.799H219.39z M221.439,47.191l0.891,0.113c0.377,0,0.955-0.246,1.725-0.74
			c0.771-0.492,1.194-0.968,1.276-1.424c-0.457,0-1.193,0.304-2.211,0.911C222.1,46.66,221.54,47.039,221.439,47.191z
			 M223.489,49.126l3.175-0.568c1.367,0,2.184,0.303,2.459,0.91l3.731-3.074c-2.278,0-4.534,0.416-6.771,1.252
			c-2.234,0.837-3.397,1.291-3.486,1.366c0.063,0.077,0.171,0.114,0.324,0.114H223.489z M223.146,80.783
			c0.134-0.756,1.291-1.744,3.482-2.961c-1.063,0-2.559,0.307-4.488,0.912c-1.93,0.609-3.025,0.91-3.293,0.91
			c-0.267,0-0.371-0.152-0.316-0.455c-0.106,0.154-0.163,0.268-0.175,0.342l-0.061,0.342c-0.2,1.139,1.539,2.469,5.218,3.984
			c3.328,1.367,5.485,2.051,6.472,2.051c1.746,0,3.235-0.91,4.469-2.734c-1.117,0.305-1.997,0.668-2.641,1.082
			c-0.644,0.418-1.495,0.627-2.558,0.627l0.359-2.049l2.433-2.164c0.969-0.76,1.753-1.555,2.357-2.391
			c-1.439,0.836-2.927,1.424-4.467,1.764c-1.541,0.342-3.088,0.816-4.637,1.426c0.067-0.381-0.05-0.572-0.354-0.572l-0.898,0.572
			c-0.153,0-0.345-0.096-0.576-0.287C223.241,80.992,223.133,80.859,223.146,80.783z M224.794,43.66h0.913l9.161-3.529l0.557-0.569
			c-0.164,0.075-0.687,0.114-1.56,0.114c-0.872,0-1.316-0.172-1.331-0.514c-0.018-0.34-0.216-0.512-0.594-0.512
			c-0.379,0-0.894,0.322-1.536,0.967c-0.648,0.647-1.104,0.97-1.368,0.97c-0.268,0-0.429-0.039-0.491-0.114L224.794,43.66z
			 M219.554,73.381l7.71-0.453l0.648-0.457l-1.594-1.936l-1.012,0.57l0.102-0.57c-0.51,0.305-1.417,0.703-2.717,1.195
			C221.389,72.225,220.344,72.775,219.554,73.381z M225.922,68.258l-0.106-2.619c0.027-0.152,0.061-0.246,0.106-0.285
			c0.045-0.035,0.073-0.094,0.087-0.17c-0.75,0.379-1.556,0.854-2.415,1.424c-0.858,0.568-1.707,0.854-2.542,0.854l0.752,0.91
			l-0.081,0.457c0.674-0.379,1.542-0.57,2.607-0.57H225.922z M229.483,45.483c0.66-0.304,1.218-0.456,1.674-0.456
			s0.744,0.076,0.869,0.227c-0.011,0.077,0.011,0.154,0.075,0.229c-0.357,0.303-0.688,0.456-0.991,0.456l0.209,0.112h0.227
			c0.607,0,1.456-0.303,2.552-0.911c1.095-0.607,1.771-1.213,2.028-1.821c3.948,0,6.812-0.95,8.588-2.847
			c-1.44,0-2.966,0.247-4.571,0.74c-1.607,0.494-2.921,0.739-3.944,0.739c-1.025,0-1.543-0.188-1.551-0.569
			c-0.107,0.607-0.429,0.911-0.958,0.911c-0.533,0-0.848-0.151-0.945-0.456c-0.134,0.761-0.688,1.33-1.665,1.707
			c-0.398,0.078-0.782,0.115-1.16,0.115h-0.684l0.628-0.341c-0.909,0-1.919,0.569-3.03,1.708
			C228.653,45.027,229.536,45.179,229.483,45.483z M231.416,75.203l-1.206-0.91c-0.548,0.533-1.2,0.893-1.955,1.08
			c-0.759,0.191-1.51,0.383-2.266,0.572c-0.755,0.189-1.491,0.396-2.217,0.625c-0.723,0.229-1.327,0.646-1.813,1.252l0.32,0.115
			c0.909,0,2.213-0.492,3.906-1.48l-0.081,0.453c0.153,0,0.517-0.131,1.095-0.396C227.776,76.248,229.181,75.814,231.416,75.203z
			 M246.152,47.817c-1.263-1.024-2.576-1.538-3.942-1.538c-1.367,0-2.646,0.154-3.838,0.455c-1.193,0.305-2.373,0.761-3.543,1.367
			c-2.672,1.367-4.153,2.887-4.447,4.557h17.08C247.852,50.457,247.413,48.84,246.152,47.817z M235.388,57.211
			c0.401-0.986,1.094-1.48,2.081-1.48l-0.16,0.912h0.912l-0.102,0.568c-0.482,0.15-1.421,0.398-2.807,0.738
			c-1.391,0.344-2.643,0.666-3.759,0.971l0.08-0.457c0.055-0.305,0.636-0.684,1.741-1.141c1.102-0.453,1.693-0.68,1.771-0.68
			L235.388,57.211z M234.726,76.457c-0.188-0.229-0.623-0.342-1.306-0.342c-0.685,0-1.537,0.209-2.558,0.627
			c-1.023,0.418-1.779,0.93-2.266,1.537c0.249,0.303,0.547,0.455,0.887,0.455c0.342,0,0.817-0.113,1.427-0.342
			c0.61-0.229,1.163-0.455,1.659-0.684C233.98,77.025,234.697,76.609,234.726,76.457z M238.446,45.027
			c-0.102-0.304-0.489-0.455-1.173-0.455c-0.153,0-0.347,0.113-0.575,0.342c-0.228,0.227-0.356,0.417-0.383,0.569
			c0.214,0.075,0.533,0.095,0.958,0.057C237.695,45.501,238.09,45.331,238.446,45.027z M242.39,35.576h-0.91
			c-0.167,0.074-0.626,0.209-1.381,0.398c-0.755,0.19-1.222,0.361-1.399,0.512c0.062,0.076,0.131,0.114,0.207,0.114h0.684
			C241.031,36.6,241.965,36.257,242.39,35.576z M235.155,79.189c-1.132,1.67-2.257,2.887-3.377,3.645h0.569l5.915-3.189
			c0.074,0,0.307-0.113,0.685-0.342c0.384-0.229,0.824-0.455,1.317-0.682c1.261-0.684,2.09-1.1,2.5-1.254
			c-0.215-0.074-0.551-0.113-1.006-0.113h-1.024c-0.382,0-0.894,0.113-1.541,0.34C237.643,78.203,236.297,78.734,235.155,79.189z
			 M246.302,39.22c0.054-0.305,0.17-0.551,0.356-0.742c0.188-0.188,0.373-0.17,0.563,0.057l3.684-0.227l-0.752-0.91l-3.367-0.912
			c-0.377,0.837-1.931,1.672-4.658,2.505c-0.647,0.229-1.084,0.342-1.31,0.342l-0.142,0.798L246.302,39.22z M238.329,80.557
			c-0.227,1.291-0.152,1.934,0.23,1.934c0.377,0,1.041-0.207,1.988-0.625c0.945-0.416,1.938-0.891,2.983-1.424
			c1.043-0.531,1.981-1.023,2.824-1.479c0.838-0.455,1.378-0.721,1.621-0.799c-0.068,0.381-1.14,1.293-3.217,2.732
			c-3.732,2.66-5.769,3.986-6.11,3.986c-0.344,0-0.859-0.303-1.548-0.91c-0.692-0.605-1.25-0.986-1.679-1.139l0.182,0.912
			c-0.133,0.758-0.454,1.289-0.965,1.594s-1.216,0.645-2.116,1.025c0.235,0.379,1.075,0.566,2.518,0.566l2.866-0.113l0.618-0.91
			c0.021,0.303,0.146,0.457,0.375,0.457l0.817-0.115l-0.122,0.682l1.239-0.566l1.4,0.453c1.291,0,2.647-0.473,4.067-1.424
			c1.418-0.947,2.243-2.066,2.47-3.357c-0.836,0-1.733,0.568-2.689,1.709l0.098-0.572l-1.073,0.912
			c0.147-0.834,0.578-1.555,1.295-2.164l0.377,0.457c1.747-1.746,3.148-2.807,4.201-3.189l0.044,1.707
			c-0.027,0.154-0.194,0.457-0.503,0.91l-0.943,1.482c-0.604,0.834-1.289,1.709-2.057,2.619l2.84-1.252l-0.239-0.57
			c1.135-1.291,2.705-2.656,4.707-4.1c-0.014-1.213-0.362-1.822-1.044-1.822c-0.533,0-0.854,0.211-0.966,0.627
			c-0.113,0.42-0.486,0.701-1.12,0.854l0.2-1.137c0.532,0,1-0.285,1.406-0.855c0.401-0.57,0.966-0.969,1.689-1.195
			c0.055-0.303-0.197-0.607-0.749-0.91c-1.218,0-2.721,0.246-4.517,0.74c-1.795,0.492-3.878,1.006-6.249,1.535
			c-0.736,1.596-2.279,2.811-4.63,3.646L238.329,80.557z M243.791,43.775l-0.663-0.115c-0.227,0-0.674,0.153-1.333,0.457
			c0.629,0.305,1.438,0.455,2.425,0.455h1.023c2.126,0,3.752-0.607,4.879-1.822h-0.457l-5.058,0.91
			C244.365,43.737,244.095,43.775,243.791,43.775z M255.006,42.179l-1.079-0.342c-0.229,0-0.841,0.456-1.836,1.367l-1.381,1.367
			l3.35-0.912c-0.194,0.229-0.431,0.398-0.717,0.514c-0.287,0.113-0.557,0.248-0.81,0.398c1.137,0,2.089-0.229,2.852-0.684
			c0.763-0.457,1.26-0.684,1.488-0.684h0.456c0.148,0,0.257,0.039,0.319,0.114l-0.401,0.341h1.253
			c-0.211-1.822-1.651-3.339-4.321-4.554c-0.63-0.304-1.228-0.456-1.798-0.456c-0.568,0-1.155,0.189-1.753,0.57
			c-0.599,0.38-1.164,0.796-1.7,1.252c-1.428,1.215-2.334,1.821-2.712,1.821h0.342c0.682,0,1.533-0.304,2.553-0.911
			c1.016-0.605,1.583-1.025,1.7-1.252l-0.202,1.138h0.685l3.329-0.796c0.605,0,0.885,0.152,0.829,0.455
			c-0.051,0.305-0.139,0.569-0.253,0.797C255.081,41.952,255.018,42.106,255.006,42.179z M248.627,46.051
			c-0.04,0.228,0.027,0.494,0.203,0.798c0.173,0.303,0.307,0.607,0.407,0.91l5.947-2.732h-0.911c-0.226,0-0.617,0.057-1.167,0.17
			c-0.553,0.113-1.145,0.229-1.77,0.343c-0.627,0.112-1.197,0.209-1.7,0.284C249.127,45.9,248.792,45.977,248.627,46.051z
			 M252.099,58.008l-2.691-0.229c-0.573,0.229-1.061,0.42-1.467,0.57c-1.057,0.379-1.609,0.723-1.661,1.025L252.099,58.008z
			 M244.257,83.746c-0.186,1.063-0.923,1.781-2.201,2.162C242.568,85.15,243.304,84.428,244.257,83.746z M252.74,48.558
			c-1.292,0-2.255,0.303-2.894,0.91c-0.027,0.152,0.054,0.342,0.242,0.569c0.187,0.229,0.355,0.344,0.509,0.344
			c0.377,0,1.54-0.571,3.489-1.71L252.74,48.558z M260.699,49.925c0.333-1.898-0.235-3.418-1.703-4.557
			c-1.14,0-2.41,0.324-3.813,0.967c-1.406,0.647-2.337,0.969-2.791,0.969c-0.456,0-0.717-0.039-0.777-0.113l-0.14,0.797
			c0.91,0,1.618-0.133,2.119-0.398c0.502-0.266,1.038-0.398,1.611-0.398c0.567,0,0.818,0.189,0.751,0.568h3.188
			c-0.987,0-2.631,0.609-4.932,1.824c-2.305,1.213-3.475,1.932-3.515,2.163h3.305l-0.375-0.455h0.455l2.538,0.455
			C259.22,51.217,260.578,50.607,260.699,49.925z M258.575,53.568l0.337,0.682l-3.733,1.141c0.063,0.076,0.208,0.113,0.437,0.113
			h1.139c2.201,0,3.389-0.492,3.563-1.48c0.065-0.379-0.023-0.74-0.264-1.08c-0.245-0.342-0.326-0.74-0.245-1.197
			c-0.346,0.229-1.197,0.553-2.563,0.969c-1.364,0.418-2.35,0.74-2.959,0.967c-0.613,0.229-0.991,0.342-1.144,0.342h0.911
			c1.139,0,1.887-0.148,2.245-0.455c0.455,0,0.731,0.154,0.829,0.455c0.096-0.529,0.242-0.834,0.444-0.91
			c0.203-0.074,0.42-0.115,0.65-0.115h0.567c0.152,0,0.257,0.041,0.321,0.115L258.575,53.568z M258.488,56.643
			c-0.373,0.836-1.393,1.441-3.055,1.82h2.28c0.378,0,1.043-0.113,1.993-0.34c-0.186-0.229-0.413-0.457-0.675-0.686
			C258.768,57.211,258.586,56.945,258.488,56.643z M253.177,82.891c-0.502,0.268-0.791,0.607-0.861,1.025
			c-0.074,0.416,0.031,0.664,0.323,0.74c0.661-0.303,1.167-0.607,1.528-0.91c-0.253-0.305-0.331-0.723-0.234-1.256l0.098-0.568
			C253.964,82.305,253.68,82.625,253.177,82.891z"/>
		<path fill="#EC0088" d="M284.248,78.107c0.004,2.012-0.23,4.359-0.706,7.051c-0.475,2.689-1.07,4.037-1.787,4.037H270.67
			l-4.938-1.293c-0.532-0.645-0.711-1.473-0.534-2.475l2.583-9.148l3.248-20.883c0.078-0.43,0.197-1.414,0.363-2.957
			c0.162-1.541,0.387-3.32,0.669-5.329c0.679-5.883,1.208-9.902,1.589-12.055c0.04-0.217,0.271-0.521,0.701-0.916
			c0.426-0.394,0.875-0.592,1.342-0.592c0.465,0,1.398,0.091,2.803,0.27c1.403,0.18,2.751,0.27,4.041,0.27h3.124
			c0.788,0,1.367-0.037,1.74-0.107c1.154,0.358,1.888,0.789,2.194,1.291c0.305,0.502,0.509,1.076,0.61,1.722
			c0.22,0.791,0.4,1.185,0.546,1.185c0.356,0,0.706-0.143,1.045-0.431l14.117-3.767c1.866,0,2.709,0.502,2.533,1.506
			c-0.579,1.65-1.094,3.248-1.544,4.789c-0.453,1.544-0.857,2.925-1.216,4.145c-0.896,2.656-1.601,3.982-2.102,3.982
			c-0.791,0-1.475-0.179-2.058-0.539c-0.583-0.357-1.396-0.537-2.434-0.537c-1.042,0-2.134,0.198-3.28,0.592
			c-1.146,0.396-2.243,0.916-3.289,1.561c-2.359,1.581-3.747,3.551-4.166,5.918c-0.125,0.721-0.429,1.832-0.909,3.336
			c-0.481,1.508-0.936,3.482-1.368,5.922C285.234,69.463,284.62,73.949,284.248,78.107z M276.106,36.993
			c-0.114,0.646-0.106,1.222,0.02,1.724c0.252,1.004,0.353,1.865,0.296,2.582c5.206-1.436,8.38-2.457,9.53-3.068
			c1.146-0.609,1.76-1.129,1.835-1.56c0.076-0.431-0.102-0.647-0.531-0.647c-1.795,0-3.635,0.162-5.521,0.485
			C279.849,36.832,277.971,36.993,276.106,36.993z M281.524,46.25c-0.889,0.359-1.546,0.609-1.962,0.752
			c-0.422,0.146-0.9,0.217-1.44,0.217c-0.537,0-1.717,0.287-3.54,0.861c-0.024,0.144-0.024,0.537,0.006,1.184
			c0.03,0.646,0.08,0.97,0.153,0.97l8.762-4.522C283.072,45.71,282.411,45.89,281.524,46.25z M278.931,45.388
			c0.912-0.286,1.817-0.539,2.718-0.754c0.897-0.215,1.736-0.5,2.519-0.86c1.716-0.788,2.734-2.081,3.05-3.874
			c-0.844,0.718-2.314,1.328-4.412,1.829c-4.123,1.005-6.419,1.614-6.888,1.829L278.931,45.388z M283.561,49.047l1.791-1.614
			c0.05-0.285-0.213-0.432-0.785-0.432c-3.348,1.078-6.179,2.477-8.49,4.2c-0.844,0.717-1.479,1.471-1.904,2.26l1.811,0.109
			c5.883,0,9.585-0.648,11.104-1.939c0.589-0.5,1.103-0.969,1.538-1.398c0.435-0.431,0.862-0.825,1.286-1.186
			c1.854-1.576,3.837-2.438,5.943-2.583c2.667-0.07,4.424-0.269,5.269-0.592c0.85-0.322,1.378-0.878,1.588-1.668l0.716-3.445
			c-1.579,0-4.862,1.329-9.853,3.982c-1.106,0.575-1.905,1.041-2.398,1.398l0.096-0.537c-0.445,0.072-0.901,0.324-1.372,0.754
			c-0.472,0.431-1.004,0.898-1.592,1.398c-1.46,1.364-2.729,2.047-3.803,2.047C283.784,49.802,283.471,49.55,283.561,49.047z
			 M274.279,55.291c-0.921,3.588-1.551,6.348-1.893,8.287l-0.241,4.412c1.362,0,2.509-0.393,3.439-1.182
			c0.927-0.791,1.925-1.363,2.993-1.725h-0.43c-0.803,0.072-1.462,0.145-1.976,0.217c-0.515,0.072-1.03,0.145-1.545,0.215
			c-0.516,0.072-0.917,0.105-1.202,0.105c-0.296-0.355-0.425-0.645-0.387-0.859c0.205-0.357,1.563-1.346,4.073-2.959
			c2.509-1.615,4.174-2.711,4.992-3.285c-0.744,0.145-1.473,0.215-2.191,0.215c-0.717,0-1.536-0.033-2.457-0.107
			c-0.918-0.07-1.847-0.107-2.778-0.107c0.186-0.646,1.109-1.398,2.768-2.26l-0.464-0.43c1.244-0.143,2.66-0.34,4.249-0.59
			c1.586-0.252,2.929-0.844,4.028-1.777c-1.51,0-3.502,0.322-5.985,0.969c-2.479,0.645-3.92,0.967-4.314,0.967
			S274.337,55.363,274.279,55.291z M272.73,79.938l-1.595-0.107c0.151-0.861,0.744-1.576,1.779-2.152l2.38-1.291
			c0.637-0.359,1.131-0.719,1.481-1.076l-5.66,0.969c-0.216,0-0.55,0.879-1.002,2.637c-0.455,1.758-0.792,3.051-1.007,3.873
			c-0.218,0.826-0.338,1.311-0.364,1.453c-0.279,1.578,2.13,2.369,7.224,2.369l4.003-0.107l1.006-5.705
			c0.025-0.143-0.018-0.322-0.121-0.537c-0.106-0.217-0.23-0.324-0.374-0.324c-0.79,0-1.415,0.287-1.875,0.861
			c0.145,0,0.308,0.092,0.492,0.27c0.183,0.18,0.264,0.342,0.238,0.484l-0.501,1.613l-1.689,0.432c-1.221,0-2.306,0.145-3.253,0.43
			c-0.947,0.287-1.715,0.467-2.301,0.539c-1.174,0.143-1.794,0-1.861-0.43c0.882-0.932,2.05-1.652,3.5-2.152
			c2.534-0.934,4.281-1.9,5.25-2.906c-0.228,0.07-0.618,0.145-1.169,0.215s-1.127,0.18-1.725,0.322
			C274.112,79.83,273.161,79.938,272.73,79.938z M279.088,70.143c-0.24-0.285-0.5-0.432-0.787-0.432l-1.095,0.111
			c-1.39,0.143-2.69,0.395-3.901,0.752c-1.211,0.359-1.833,0.629-1.863,0.807c-0.033,0.18,0.006,0.576,0.112,1.186
			c0.109,0.609,0.413,0.914,0.918,0.914c0.355,0,1.548-0.539,3.565-1.615C278.058,70.789,279.073,70.217,279.088,70.143z
			 M273.642,74.771c1.874-0.859,3.458-1.291,4.748-1.291c1.293,0,2.017,0.055,2.179,0.162c0.158,0.107,0.207,0.359,0.137,0.754
			c-0.069,0.395-0.374,0.789-0.908,1.182c-0.538,0.396-1.154,0.738-1.851,1.023c-1.958,0.934-3.148,1.58-3.57,1.938
			c0.718,0,1.938-0.215,3.666-0.646l2.608-0.752l0.85-2.369l2.37-13.453l-0.029-2.262c-3.069,1.938-5.177,3.303-6.319,4.092h3.229
			c0.36,0,0.482,0.322,0.367,0.967c-0.112,0.646-0.517,1.203-1.209,1.67s-1.471,0.914-2.336,1.346
			c-2.271,1.074-3.582,1.795-3.931,2.152l6.23-0.539c1.146,0,1.664,0.322,1.552,0.967c-0.191,1.078-2.762,2.621-7.706,4.629
			L273.642,74.771z M279.104,57.229l3.102,0.107c0.788,0,1.456-0.125,2.004-0.377c0.545-0.252,0.903-0.842,1.068-1.775
			C283.555,55.184,281.497,55.865,279.104,57.229z M294.625,40.007l-0.335-0.539c-3.276,1.076-5.621,2.979-7.032,5.705
			c-0.304,0.502-0.576,0.825-0.817,0.967l1.1-0.752c0.748-0.574,1.578-1.22,2.497-1.938
			C292.698,41.371,294.226,40.221,294.625,40.007z M304.128,38.608l1.292-1.831l0.076-0.43c-3.581,0.359-6.537,1.257-8.869,2.69
			c0.346,0.072,0.749,0.108,1.218,0.108c0.465,0,0.664,0.198,0.596,0.592c-0.071,0.395-0.352,0.771-0.846,1.13
			c-0.493,0.36-1.06,0.718-1.698,1.075c-1.058,0.72-2.013,1.257-2.865,1.615l0.5,0.216L304.128,38.608z"/>
		<path fill="#0064A6" d="M320.064,69.258l-4.542,0.107c-1.795,0-2.974-0.213-3.545-0.646c-0.141-1.648-0.033-3.48,0.321-5.49
			l1.242-5.813c0.089-0.934,1.039-11.195,2.844-30.788l1.5-6.674l0.101-1.184c0.178-1.006,0.697-1.509,1.558-1.509l10.688-1.399
			l2.566,0.107c0.831,0.576,1.103,2.906,0.813,6.998c-0.133,1.148-0.279,2.189-0.443,3.121c-0.164,0.934-0.531,2.191-1.095,3.768
			c-0.567,1.58-1.193,3.303-1.88,5.168c-1.771,4.736-2.817,8.038-3.146,9.904l-1.595,12.702l-1.474,7.75l-0.481,3.338l-0.993,0.754
			C321.81,69.33,320.994,69.258,320.064,69.258z M314.14,88.205c-0.818,0.572-1.805,0.861-2.951,0.861
			c-2.799,0-4.207-0.361-4.225-1.076c-0.043-1.793,0.004-3.07,0.138-3.822c0.133-0.754,0.335-1.598,0.606-2.529
			s0.6-1.867,0.979-2.801c0.836-2.295,1.54-3.443,2.114-3.443h10.656c0.217,0,0.291,0.18,0.229,0.537
			c0.714,2.873,0.742,6.174,0.084,9.904l-0.258,0.861l-0.115,0.646l-1.013,0.861H314.14z M321.994,23.505l0.521,0.107
			c0.298-0.069,0.856-0.393,1.676-0.967c1.458-0.933,2.228-1.633,2.31-2.101c0.083-0.466-0.166-0.699-0.739-0.699
			c-2.009,0-3.644,0.216-4.903,0.646c-1.26,0.431-2.087,1.76-2.479,3.982c0.647,0,1.266-0.16,1.865-0.484
			C320.836,23.667,321.419,23.505,321.994,23.505z M321.128,25.983c-0.842,0.286-1.414,0.483-1.721,0.591
			c-0.305,0.107-0.493,0.361-0.563,0.754c-0.069,0.396,0.163,0.701,0.7,0.914c-0.912,0.289-1.432,0.792-1.558,1.508
			c-0.014,0.074-0.016,0.181-0.004,0.324c0.01,0.144,0.01,0.252-0.004,0.322c0.386-0.143,0.686-0.322,0.903-0.539
			c0.218-0.215,0.45-0.322,0.703-0.322c0.252,0,0.442,0.037,0.574,0.107c0.323-0.215,0.898-0.52,1.722-0.914
			c0.824-0.394,1.665-0.808,2.532-1.238c2.31-1.293,3.488-2.081,3.54-2.368c0.024-0.144-0.313-0.358-1.017-0.647
			c-0.704-0.285-1.199-0.43-1.484-0.43c-0.287,0-0.788,0.18-1.494,0.539c-0.71,0.359-1.15,0.61-1.317,0.753l0.076-0.431
			C322.497,25.336,321.966,25.697,321.128,25.983z M318.355,32.549c1.433,0,2.221-0.394,2.361-1.185
			c0.024-0.143-0.127-0.305-0.453-0.484c-0.327-0.18-0.552-0.34-0.668-0.484c-0.145,0-0.396,0.108-0.756,0.322
			c-0.362,0.217-0.592,0.396-0.687,0.539C318.026,31.976,318.093,32.406,318.355,32.549z M320.994,19.416l4.509-0.539
			c0.932,0,1.675,0.162,2.23,0.484c0.55,0.324,1.436,0.485,2.657,0.485l-0.64,1.185c-0.611,0.215-1.448,0.592-2.513,1.13
			c-1.063,0.538-1.608,0.88-1.635,1.022h1.724l-0.615,0.43h3.661l0.664-3.767l0.633-0.539c-0.866-0.788-2.481-1.184-4.851-1.184
			h-0.43c-2.44,0-4.035,0.288-4.781,0.86l0.094-0.537C321.306,18.662,321.069,18.984,320.994,19.416z M318.553,36.317
			c-0.027,0.146,0.192,0.215,0.66,0.215c0.467,0,0.694-0.069,0.685-0.215c-0.011-0.143,0.165-0.431,0.528-0.86
			c0.46-0.574,1.145-0.897,2.055-0.971c0.909-0.07,1.543-0.196,1.897-0.377c0.354-0.178,0.582-0.555,0.683-1.129
			c-0.133-0.071-0.447-0.108-0.948-0.108h-0.97c-1.363,0-2.477,0.198-3.335,0.593s-1.294,0.629-1.307,0.698L318.553,36.317z
			 M317.053,85.729c0.304-0.502,0.956-0.752,1.963-0.752c0.089-0.502-0.004-1.006-0.274-1.51c-1.284,1.58-3.61,2.369-6.984,2.369
			c0.191-1.076,0.764-1.883,1.721-2.422c0.954-0.539,1.715-0.986,2.283-1.346c0.563-0.359,1.047-0.861,1.448-1.508
			c-0.721,0.432-1.512,0.738-2.367,0.916c-0.857,0.18-1.671,0.412-2.438,0.699c-1.694,0.645-2.664,1.67-2.912,3.068
			c-0.243,1.398-0.152,2.1,0.276,2.1l7.688-0.861C317.521,86.123,317.386,85.873,317.053,85.729z M314.481,78.947
			c0.419-0.359,0.653-0.664,0.698-0.914c0.045-0.252-0.222-0.379-0.796-0.379s-1.319,0.254-2.231,0.754
			c-0.913,0.504-1.459,1.256-1.636,2.26L310.44,81.1C311.587,81.1,312.935,80.383,314.481,78.947z M323.517,36.856l-4.838,1.183
			c-0.473,0.646-0.854,1.795-1.146,3.446c0.86,0,1.769-0.359,2.72-1.077c0.95-0.716,1.7-1.293,2.243-1.723
			c0.541-0.43,1.01-0.754,1.407-0.969L323.517,36.856z M317.742,45.791c3.17-1.293,5.547-2.763,7.131-4.414
			c-0.398,0.215-0.986,0.395-1.765,0.539c-0.778,0.143-1.577,0.287-2.39,0.43c-1.932,0.361-2.977,0.898-3.137,1.614
			C317.418,44.678,317.472,45.289,317.742,45.791z M319.788,51.281l3.883-0.646l0.664-3.768c-0.646,0-1.219,0.288-1.712,0.861
			c-0.498,0.575-0.879,1.006-1.145,1.291c-0.267,0.289-0.613,0.432-1.043,0.432c0.126-0.717,0.428-1.221,0.91-1.508
			c0.964-0.574,1.482-1.076,1.559-1.507c-0.79,0-1.988,0.288-3.599,0.861c-1.606,0.575-2.418,0.897-2.43,0.97l0.253,3.444
			c0.565-0.357,0.913-0.699,1.042-1.021c0.127-0.324,0.51-0.665,1.148-1.024c0.309,0.287,0.444,0.539,0.406,0.754l-0.455,0.754
			C319.256,51.246,319.429,51.281,319.788,51.281z M316.218,56.877c0.286,0,1.059-0.5,2.312-1.506
			c2.482-1.863,3.761-3.012,3.837-3.445c-1.076,0-1.997,0.125-2.757,0.377c-0.765,0.254-1.646,0.379-2.651,0.379L316.218,56.877z
			 M319.569,59.246c-1.69,1.436-3.097,2.297-4.224,2.584l-0.077,0.43c0.298-0.07,0.842-0.197,1.627-0.377
			c0.787-0.178,1.592-0.377,2.42-0.592c2.109-0.574,3.229-1.221,3.356-1.939c0.063-0.355-0.085-0.537-0.443-0.537
			c-1.343,0.289-2.262,0.611-2.755,0.971L319.569,59.246z M315.244,64.842c1.076,0,1.845-0.285,2.306-0.859
			c0.459-0.576,1.133-1.148,2.024-1.723h-0.537c-1.293,0-2.291,0.27-2.996,0.809c-0.705,0.537-1.088,0.986-1.151,1.344
			L315.244,64.842z M323.04,30.396c0.249,0.215,0.425,0.646,0.526,1.291h4.304l0.712,0.862l0.848-2.369
			c0.063-0.356-0.105-0.521-0.508-0.483c-0.401,0.036-1.98,0.557-4.741,1.561c-0.059-0.07-0.076-0.18-0.05-0.322l0.094-0.539
			c0.153-0.861,1.383-1.543,3.699-2.045c0.523-0.143,0.874-0.287,1.043-0.431l0.709,0.86l0.684-3.875h-1.291
			c0.286,0,0.401,0.162,0.346,0.484c-0.058,0.322-0.465,0.699-1.222,1.13c-0.759,0.431-1.59,0.861-2.489,1.292
			c-0.903,0.43-1.781,0.845-2.64,1.238c-0.862,0.396-1.417,0.699-1.669,0.916l0.354,0.43c0.591-0.501,1.049-0.754,1.372-0.754
			c0.322,0,0.471,0.072,0.446,0.215C323.541,30.003,323.365,30.18,323.04,30.396z M316.251,59.137
			c-0.179,1.006-0.123,1.508,0.164,1.508c0.726-0.859,1.58-1.436,2.563-1.723c0.984-0.285,1.875-0.861,2.672-1.721
			c-1.005,0-1.854,0.143-2.55,0.43c-0.698,0.287-1.584,0.43-2.661,0.43L316.251,59.137z M314.902,66.781
			c0.127,0.502,0.943,0.754,2.45,0.754h0.753c1.22,0,2.082-0.107,2.589-0.322c0.502-0.217,0.876-1.004,1.117-2.371h-0.861
			c0.063-0.357,0.205-0.553,0.428-0.59c0.221-0.037,0.376-0.307,0.465-0.807c0.088-0.504-0.12-0.754-0.621-0.754
			c-0.503,0-0.816,0.143-0.938,0.43c0.178,0.217,0.245,0.449,0.199,0.699c-0.044,0.252-0.355,0.502-0.94,0.754
			c-0.581,0.252-1.204,0.521-1.862,0.807c-0.662,0.289-1.281,0.541-1.856,0.756C315.248,66.352,314.939,66.566,314.902,66.781z
			 M327.058,36.317c-0.956,0.933-2.128,1.776-3.515,2.53c-1.391,0.752-2.49,1.598-3.299,2.529c1.866,0,3.45-0.34,4.755-1.023
			c1.305-0.68,2.133-2.025,2.487-4.036H327.058z M317.542,57.309h0.43c1.292,0,2.536-0.432,3.727-1.293
			c1.192-0.859,1.896-1.898,2.112-3.119c-0.29,0-1.083,0.43-2.382,1.291c-2.419,1.506-3.744,2.512-3.978,3.014
			C317.44,57.273,317.47,57.309,317.542,57.309z M324.049,43.906c-0.463,0.396-0.931,0.592-1.396,0.592
			c-0.469,0-1.067,0.254-1.803,0.754c-0.732,0.504-1.071,0.791-1.01,0.861c2.008,0,3.422-0.285,4.24-0.861
			c0.818-0.573,1.258-1.023,1.315-1.346s0.082-0.572,0.078-0.753c-0.006-0.179,0-0.305,0.014-0.376
			C324.991,43.136,324.515,43.513,324.049,43.906z M327.589,33.302c-0.217,0-0.602,0.146-1.154,0.43
			c-0.554,0.289-1.142,0.576-1.768,0.861c-1.188,0.647-2.08,1.223-2.671,1.724c0.933,0,1.86-0.162,2.778-0.485
			c0.917-0.322,1.878-0.484,2.883-0.484l0.361-2.045H327.589z M320.028,78.623c0.074-0.432-0.193-0.646-0.802-0.646
			c-0.61,0-1.402,0.215-2.376,0.646c-0.973,0.432-1.582,0.934-1.825,1.508h0.537c0.229-0.07,0.567-0.16,1.017-0.27
			c0.451-0.107,0.938-0.232,1.467-0.377C319.327,79.125,319.989,78.838,320.028,78.623z M320.149,80.992l-0.014-0.539
			c-0.791,0-1.819,0.539-3.083,1.615c-1.268,1.076-1.993,1.723-2.173,1.938c1.147,0,2.278-0.305,3.392-0.914
			C319.381,82.482,320.009,81.783,320.149,80.992z"/>
	</g>
</g>
</svg>
